<svg width="33" height="32" viewBox="0 0 33 32" fill="none" xmlns="http://www.w3.org/2000/svg">
<path d="M10.172 24.6587L11.1373 25.2227C12.7652 26.1721 14.6168 26.6706 16.5013 26.6667C18.611 26.6667 20.6733 26.0411 22.4274 24.869C24.1815 23.697 25.5487 22.0311 26.356 20.082C27.1634 18.1329 27.3746 15.9882 26.963 13.9191C26.5515 11.8499 25.5356 9.94931 24.0438 8.45755C22.552 6.96579 20.6514 5.94989 18.5823 5.53831C16.5132 5.12674 14.3684 5.33797 12.4194 6.14531C10.4703 6.95264 8.80438 8.31981 7.63231 10.0739C6.46024 11.8281 5.83465 13.8904 5.83465 16C5.83076 17.8852 6.32968 19.7373 7.27999 21.3654L7.84265 22.3307L6.97199 25.532L10.172 24.6587ZM3.17332 29.3334L4.97599 22.7094C3.78811 20.6732 3.16405 18.3574 3.16799 16C3.16799 8.63602 9.13732 2.66669 16.5013 2.66669C23.8653 2.66669 29.8347 8.63602 29.8347 16C29.8347 23.364 23.8653 29.3334 16.5013 29.3334C14.145 29.3372 11.8302 28.7136 9.79465 27.5267L3.17332 29.3334ZM11.6893 9.74402C11.868 9.73069 12.048 9.73069 12.2267 9.73869C12.2987 9.74402 12.3707 9.75202 12.4427 9.76002C12.6547 9.78402 12.888 9.91335 12.9667 10.092C13.364 10.9934 13.7507 11.9014 14.124 12.812C14.2067 13.0147 14.1573 13.2747 14 13.528C13.92 13.6574 13.7947 13.8387 13.6493 14.024C13.4987 14.2174 13.1747 14.572 13.1747 14.572C13.1747 14.572 13.0427 14.7294 13.0933 14.9254C13.112 15 13.1733 15.108 13.2293 15.1987L13.308 15.3254C13.6493 15.8947 14.108 16.472 14.668 17.016C14.828 17.1707 14.984 17.3294 15.152 17.4774C15.776 18.028 16.4827 18.4774 17.2453 18.8107L17.252 18.8134C17.3653 18.8627 17.4227 18.8894 17.588 18.96C17.6707 18.9947 17.756 19.024 17.8427 19.048C17.9322 19.0708 18.0265 19.0665 18.1136 19.0357C18.2008 19.0048 18.2768 18.9488 18.332 18.8747C19.2973 17.7054 19.3853 17.6294 19.3933 17.6294V17.632C19.4604 17.5695 19.5401 17.522 19.627 17.4928C19.7139 17.4636 19.8061 17.4533 19.8973 17.4627C19.9773 17.468 20.0587 17.4827 20.1333 17.516C20.8413 17.84 22 18.3454 22 18.3454L22.776 18.6934C22.9067 18.756 23.0253 18.904 23.0293 19.0467C23.0347 19.136 23.0427 19.28 23.012 19.544C22.9693 19.8894 22.8653 20.304 22.7613 20.5214C22.69 20.6696 22.5955 20.8056 22.4813 20.924C22.3468 21.0653 22.1995 21.1938 22.0413 21.308C21.932 21.3907 21.8747 21.428 21.8747 21.428C21.7088 21.5332 21.5384 21.6311 21.364 21.7214C21.0207 21.9037 20.6415 22.0084 20.2533 22.028C20.0067 22.0414 19.76 22.06 19.512 22.0467C19.5013 22.0467 18.7547 21.9307 18.7547 21.9307C16.859 21.4321 15.1058 20.498 13.6347 19.2027C13.3333 18.9374 13.0533 18.652 12.768 18.368C11.584 17.188 10.6867 15.9147 10.1413 14.712C9.8636 14.122 9.71366 13.48 9.70132 12.828C9.69631 12.0183 9.9614 11.2301 10.4547 10.588C10.552 10.4627 10.644 10.332 10.8027 10.1814C10.9707 10.0214 11.0787 9.93602 11.1947 9.87735C11.3489 9.80006 11.5171 9.75471 11.6893 9.74402Z" fill="black"/>
</svg>
